<?xml version="1.0" encoding="UTF-8" standalone="no"?>
<!-- Created with Inkscape (http://www.inkscape.org/) -->

<svg
   xmlns:dc="http://purl.org/dc/elements/1.1/"
   xmlns:cc="http://creativecommons.org/ns#"
   xmlns:rdf="http://www.w3.org/1999/02/22-rdf-syntax-ns#"
   xmlns:svg="http://www.w3.org/2000/svg"
   xmlns="http://www.w3.org/2000/svg"
   xmlns:sodipodi="http://sodipodi.sourceforge.net/DTD/sodipodi-0.dtd"
   xmlns:inkscape="http://www.inkscape.org/namespaces/inkscape"
   width="91.147446mm"
   height="107.28704mm"
   viewBox="0 0 91.147446 107.28704"
   version="1.1"
   id="svg8"
   inkscape:version="0.92.4 5da689c313, 2019-01-14"
   sodipodi:docname="wo.svg">
  <defs
     id="defs2">
    <marker
       inkscape:stockid="Arrow2Mend"
       orient="auto"
       refY="0"
       refX="0"
       id="Arrow2Mend"
       style="overflow:visible"
       inkscape:isstock="true">
      <path
         id="path909"
         style="fill:#000000;fill-opacity:1;fill-rule:evenodd;stroke:#000000;stroke-width:0.625;stroke-linejoin:round;stroke-opacity:1"
         d="M 8.7185878,4.0337352 -2.2072895,0.01601326 8.7185884,-4.0017078 c -1.7454984,2.3720609 -1.7354408,5.6174519 -6e-7,8.035443 z"
         transform="scale(-0.6)"
         inkscape:connector-curvature="0" />
    </marker>
    <marker
       inkscape:stockid="Arrow2Lend"
       orient="auto"
       refY="0"
       refX="0"
       id="Arrow2Lend"
       style="overflow:visible"
       inkscape:isstock="true">
      <path
         id="path903"
         style="fill:#000000;fill-opacity:1;fill-rule:evenodd;stroke:#000000;stroke-width:0.625;stroke-linejoin:round;stroke-opacity:1"
         d="M 8.7185878,4.0337352 -2.2072895,0.01601326 8.7185884,-4.0017078 c -1.7454984,2.3720609 -1.7354408,5.6174519 -6e-7,8.035443 z"
         transform="matrix(-1.1,0,0,-1.1,-1.1,0)"
         inkscape:connector-curvature="0" />
    </marker>
    <marker
       inkscape:stockid="Arrow1Lend"
       orient="auto"
       refY="0"
       refX="0"
       id="Arrow1Lend"
       style="overflow:visible"
       inkscape:isstock="true">
      <path
         id="path885"
         d="M 0,0 5,-5 -12.5,0 5,5 Z"
         style="fill:#000000;fill-opacity:1;fill-rule:evenodd;stroke:#000000;stroke-width:1.00000003pt;stroke-opacity:1"
         transform="matrix(-0.8,0,0,-0.8,-10,0)"
         inkscape:connector-curvature="0" />
    </marker>
    <marker
       inkscape:stockid="Arrow2Mend"
       orient="auto"
       refY="0"
       refX="0"
       id="Arrow2Mend-5"
       style="overflow:visible"
       inkscape:isstock="true">
      <path
         inkscape:connector-curvature="0"
         id="path909-3"
         style="fill:#000000;fill-opacity:1;fill-rule:evenodd;stroke:#000000;stroke-width:0.625;stroke-linejoin:round;stroke-opacity:1"
         d="M 8.7185878,4.0337352 -2.2072895,0.01601326 8.7185884,-4.0017078 c -1.7454984,2.3720609 -1.7354408,5.6174519 -6e-7,8.035443 z"
         transform="scale(-0.6)" />
    </marker>
  </defs>
  <sodipodi:namedview
     id="base"
     pagecolor="#ffffff"
     bordercolor="#666666"
     borderopacity="1.0"
     inkscape:pageopacity="0.0"
     inkscape:pageshadow="2"
     inkscape:zoom="1.4"
     inkscape:cx="276.94193"
     inkscape:cy="135.68968"
     inkscape:document-units="mm"
     inkscape:current-layer="layer1"
     showgrid="false"
     fit-margin-top="0"
     fit-margin-left="0"
     fit-margin-right="0"
     fit-margin-bottom="0"
     inkscape:window-width="1916"
     inkscape:window-height="1041"
     inkscape:window-x="0"
     inkscape:window-y="18"
     inkscape:window-maximized="0" />
  <metadata
     id="metadata5">
    <rdf:RDF>
      <cc:Work
         rdf:about="">
        <dc:format>image/svg+xml</dc:format>
        <dc:type
           rdf:resource="http://purl.org/dc/dcmitype/StillImage" />
        <dc:title></dc:title>
      </cc:Work>
    </rdf:RDF>
  </metadata>
  <g
     inkscape:label="Layer 1"
     inkscape:groupmode="layer"
     id="layer1"
     transform="translate(-57.024588,-87.80714)">
    <text
       xml:space="preserve"
       style="font-style:normal;font-variant:normal;font-weight:normal;font-stretch:normal;font-size:50.22483063px;line-height:1.25;font-family:'Source Han Serif CN';-inkscape-font-specification:'Source Han Serif CN';letter-spacing:0px;word-spacing:0px;fill:#000000;fill-opacity:1;stroke:none;stroke-width:0.26158765"
       x="80.517532"
       y="131.63487"
       id="text827"><tspan
         sodipodi:role="line"
         x="80.517532"
         y="131.63487"
         id="tspan825"
         style="stroke-width:0.26158765"><tspan
           x="80.517532"
           y="131.63487"
           id="tspan823"
           style="stroke-width:0.26158765">我</tspan></tspan></text>
    <g
       id="g878"
       transform="translate(-2.0788691,-0.37797618)">
      <text
         id="text831"
         y="192.79105"
         x="58.009846"
         style="font-style:normal;font-variant:normal;font-weight:normal;font-stretch:normal;font-size:50.79999924px;line-height:1.25;font-family:'Source Han Serif CN';-inkscape-font-specification:'Source Han Serif CN';letter-spacing:0px;word-spacing:0px;fill:#000000;fill-opacity:1;stroke:none;stroke-width:0.26458332"
         xml:space="preserve"><tspan
           style="font-size:35.27777863px;stroke-width:0.26458332"
           y="192.79105"
           x="58.009846"
           id="tspan829"
           sodipodi:role="line">手</tspan></text>
      <path
         inkscape:connector-curvature="0"
         id="text831-3"
         d="m 128.89336,163.10501 c 0,3.42194 0.17649,6.70284 0.6351,9.77201 l -11.50059,0.8816 0.42323,1.02319 11.25409,-0.81132 c 0.74084,4.69195 2.18678,8.88983 4.47983,12.34705 -4.1275,3.4925 -9.38385,6.34993 -15.48691,8.21966 l 0.21188,0.56482 c 6.56166,-1.48167 12.02972,-4.05712 16.40416,-7.23212 2.32834,2.92806 5.43254,5.18591 9.45421,6.59702 2.43416,1.02305 4.83315,1.51701 5.3976,0.24701 0.21167,-0.45861 0.10601,-0.77618 -1.23455,-1.83451 l 0.56431,-5.15059 -0.45837,-0.0708 c -0.49389,1.44639 -1.30562,3.28097 -1.76424,4.19819 -0.35277,0.67028 -0.67014,0.67045 -1.62264,0.35295 -3.66889,-1.16416 -6.45555,-3.21055 -8.53694,-5.75055 3.35139,-2.78694 5.9616,-5.96188 7.76076,-9.27799 0.88195,0.14111 1.2699,0.0355 1.48157,-0.31729 l -3.35122,-1.76423 c -1.5875,3.45722 -4.02174,6.77354 -7.12618,9.73687 -2.04611,-3.13972 -3.24525,-6.95 -3.91552,-11.04222 l 16.79225,-1.30483 c 0.49389,-0.0353 0.84619,-0.24705 0.91674,-0.6351 -1.30528,-1.02306 -3.42149,-2.46962 -3.42149,-2.46962 l -1.62316,2.36368 -12.84108,0.98754 c -0.35277,-2.64584 -0.49351,-5.39743 -0.49351,-8.21966 0.88195,-0.14111 1.19914,-0.52892 1.26969,-0.98753 z m 6.77374,0.84646 -0.31781,0.35295 c 2.08139,1.27 4.79795,3.66854 5.64462,5.6441 2.68111,1.34055 3.66903,-4.16261 -5.32681,-5.99705 z"
         style="font-style:normal;font-variant:normal;font-weight:normal;font-stretch:normal;font-size:50.79999924px;line-height:1.25;font-family:'Source Han Serif CN';-inkscape-font-specification:'Source Han Serif CN';letter-spacing:0px;word-spacing:0px;fill:#000000;fill-opacity:1;stroke:none;stroke-width:0.26458332" />
    </g>
    <rect
       style="fill:none;stroke:#000000;stroke-width:0.71608877;stroke-miterlimit:4;stroke-dasharray:none;stroke-dashoffset:0;stroke-opacity:1"
       id="rect855"
       width="26.46427"
       height="48.38689"
       x="80.694954"
       y="88.165184" />
    <rect
       style="fill:none;stroke:#000000;stroke-width:0.71608877;stroke-miterlimit:4;stroke-dasharray:none;stroke-dashoffset:0;stroke-opacity:1"
       id="rect855-7"
       width="26.46427"
       height="48.38689"
       x="107.15923"
       y="88.165184" />
    <path
       style="fill:none;stroke:#000000;stroke-width:1.46500003;stroke-linecap:butt;stroke-linejoin:miter;stroke-miterlimit:4;stroke-dasharray:none;stroke-opacity:1;marker-end:url(#Arrow2Mend)"
       d="M 89.958332,140.13988 77.107141,160.55059"
       id="path880"
       inkscape:connector-curvature="0"
       sodipodi:nodetypes="cc" />
    <path
       style="fill:none;stroke:#000000;stroke-width:1.46500015;stroke-linecap:butt;stroke-linejoin:miter;stroke-miterlimit:4;stroke-dasharray:none;stroke-opacity:1;marker-end:url(#Arrow2Mend-5)"
       d="m 121.85768,140.50694 7.37054,17.76488"
       id="path880-5"
       inkscape:connector-curvature="0"
       sodipodi:nodetypes="cc" />
  </g>
</svg>
